<svg width="30" height="30" viewBox="0 0 30 30" fill="none" xmlns="http://www.w3.org/2000/svg">
<path d="M9 10.5H21L19.815 21.165C19.7744 21.532 19.5998 21.8712 19.3247 22.1175C19.0496 22.3638 18.6933 22.5 18.324 22.5H11.676C11.3067 22.5 10.9504 22.3638 10.6753 22.1175C10.4002 21.8712 10.2256 21.532 10.185 21.165L9 10.5Z" stroke="#282828" stroke-width="1.39706" stroke-linecap="round" stroke-linejoin="round"/>
<path d="M11.5086 8.36025C11.6299 8.10298 11.8219 7.8855 12.0621 7.73318C12.3024 7.58087 12.5809 7.5 12.8654 7.5H17.1344C17.4189 7.49985 17.6977 7.58066 17.9381 7.73298C18.1784 7.88531 18.3705 8.10286 18.4919 8.36025L19.4999 10.5H10.4999L11.5086 8.36025Z" stroke="#282828" stroke-width="1.39706" stroke-linecap="round" stroke-linejoin="round"/>
<path d="M7.5 10.5H22.5" stroke="#282828" stroke-width="1.39706" stroke-linecap="round" stroke-linejoin="round"/>
<path d="M13.4999 14.25V18" stroke="#282828" stroke-width="1.39706" stroke-linecap="round" stroke-linejoin="round"/>
<path d="M16.5 14.25V18" stroke="#282828" stroke-width="1.39706" stroke-linecap="round" stroke-linejoin="round"/>
</svg>
