<svg width="24" height="24" viewBox="0 0 24 24" fill="none" xmlns="http://www.w3.org/2000/svg">
<g clip-path="url(#clip0_2276_11678)">
<path d="M12.0003 14.9988C13.6566 14.9988 14.9992 13.6561 14.9992 11.9999C14.9992 10.3437 13.6566 9.00104 12.0003 9.00104C10.3441 9.00104 9.00146 10.3437 9.00146 11.9999C9.00146 13.6561 10.3441 14.9988 12.0003 14.9988Z" fill="#686868"/>
<path d="M20.4501 10.0649C19.2873 8.17111 16.6423 4.99377 12 4.99377C7.35771 4.99377 4.71269 8.17111 3.54987 10.0649C2.81671 11.2507 2.81671 12.7491 3.54987 13.935C4.71269 15.8288 7.35771 19.0061 12 19.0061C16.6423 19.0061 19.2873 15.8288 20.4501 13.935C21.1833 12.7491 21.1833 11.2507 20.4501 10.0649ZM12 16.4983C9.51564 16.4983 7.50165 14.4843 7.50165 11.9999C7.50165 9.51558 9.51564 7.50159 12 7.50159C14.4843 7.50159 16.4983 9.51558 16.4983 11.9999C16.4958 14.4832 14.4833 16.4958 12 16.4983Z" fill="#686868"/>
</g>
<defs>
<clipPath id="clip0_2276_11678">
<rect width="18" height="18" fill="white" transform="translate(3 3)"/>
</clipPath>
</defs>
</svg>
