<svg width="24" height="24" viewBox="0 0 24 24" fill="none" xmlns="http://www.w3.org/2000/svg">
<g clip-path="url(#clip0_1404_2362)">
<path d="M20.45 10.2003C19.7732 9.09202 18.9194 8.10204 17.9227 7.26967L20.0219 5.17046C20.3095 4.87262 20.3013 4.39801 20.0034 4.11037C19.7129 3.82975 19.2523 3.82975 18.9618 4.11037L16.6789 6.39626C15.2637 5.5557 13.6458 5.11757 11.9999 5.12924C7.35832 5.12924 4.7133 8.30657 3.54975 10.2004C2.81659 11.3862 2.81659 12.8846 3.54975 14.0704C4.22657 15.1788 5.0803 16.1687 6.07707 17.0011L3.97786 19.1003C3.68002 19.388 3.67176 19.8626 3.95941 20.1604C4.24706 20.4582 4.7217 20.4665 5.01951 20.1789C5.02576 20.1728 5.03191 20.1667 5.03796 20.1604L7.32609 17.8723C8.73952 18.7127 10.3555 19.1516 11.9999 19.1415C16.6414 19.1415 19.2864 15.9642 20.45 14.0704C21.1832 12.8846 21.1832 11.3862 20.45 10.2003ZM7.50156 12.1354C7.49731 9.65515 9.50445 7.6411 11.9847 7.63685C12.9231 7.63523 13.8385 7.92766 14.6022 8.47301L13.5136 9.5616C13.0566 9.28601 12.5335 9.13911 11.9999 9.13651C10.3437 9.13651 9.00102 10.4792 9.00102 12.1354C9.00362 12.669 9.15052 13.1921 9.42611 13.6491L8.33752 14.7377C7.79392 13.9788 7.5016 13.0688 7.50156 12.1354ZM11.9999 16.6337C11.0665 16.6337 10.1565 16.3414 9.39761 15.7978L10.4862 14.7092C10.9432 14.9848 11.4662 15.1317 11.9999 15.1343C13.6561 15.1343 14.9988 13.7916 14.9988 12.1354C14.9962 11.6017 14.8493 11.0787 14.5737 10.6217L15.6623 9.5331C17.1036 11.5515 16.6358 14.3562 14.6174 15.7976C13.8537 16.3429 12.9383 16.6353 11.9999 16.6337Z" fill="#686868"/>
</g>
<defs>
<clipPath id="clip0_1404_2362">
<rect width="18" height="18" fill="white" transform="translate(3 3)"/>
</clipPath>
</defs>
</svg>
