<svg width="120" height="56" viewBox="0 0 120 56" fill="none" xmlns="http://www.w3.org/2000/svg">
<path d="M117.202 2.74627C117.3 2.74627 117.393 2.74261 117.483 2.73408C117.572 2.72738 117.651 2.70485 117.718 2.66892C117.784 2.63176 117.838 2.58182 117.88 2.51726C117.92 2.4527 117.941 2.36012 117.941 2.24074C117.941 2.14208 117.92 2.06473 117.875 2.00748C117.832 1.95022 117.778 1.90576 117.711 1.87531C117.644 1.84424 117.57 1.82414 117.487 1.81745C117.406 1.80892 117.325 1.80527 117.249 1.80527H116.619V2.74627H117.202ZM116.618 4.57467H116.096V1.35395H117.302C117.687 1.35395 117.976 1.42643 118.171 1.57138C118.365 1.71756 118.463 1.95266 118.463 2.27973C118.463 2.56964 118.383 2.78342 118.224 2.91741C118.065 3.05323 117.867 3.13363 117.632 3.15921L118.525 4.57467H117.932L117.11 3.19819H116.617V4.57467H116.618ZM119.385 2.9101C119.385 2.55685 119.329 2.23283 119.217 1.93682C119.103 1.64143 118.948 1.38745 118.748 1.17488C118.547 0.961711 118.315 0.797266 118.048 0.680935C117.781 0.563995 117.495 0.504915 117.188 0.504915C116.874 0.504915 116.584 0.563995 116.314 0.680935C116.046 0.797266 115.811 0.961711 115.611 1.17488C115.412 1.38745 115.255 1.64143 115.142 1.93682C115.03 2.23283 114.974 2.55685 114.974 2.9101C114.974 3.24143 115.025 3.55328 115.127 3.8438C115.23 4.13432 115.376 4.3883 115.569 4.60635C115.761 4.82439 115.993 4.99676 116.265 5.12344C116.537 5.25073 116.844 5.31469 117.188 5.31469C117.496 5.31469 117.782 5.25561 118.048 5.13928C118.315 5.02295 118.548 4.8585 118.748 4.64532C118.948 4.43276 119.104 4.17939 119.217 3.88643C119.329 3.59348 119.385 3.26762 119.385 2.9101ZM120 2.9101C120 3.34619 119.924 3.74269 119.774 4.10021C119.622 4.45834 119.417 4.7647 119.158 5.01807C118.899 5.27327 118.6 5.47 118.258 5.61069C117.918 5.75017 117.56 5.82021 117.187 5.82021C116.771 5.82021 116.39 5.74651 116.045 5.59851C115.699 5.45051 115.401 5.24708 115.153 4.98762C114.904 4.72816 114.709 4.42058 114.568 4.0655C114.429 3.70981 114.357 3.32488 114.357 2.9101C114.357 2.47401 114.433 2.07752 114.583 1.72C114.735 1.36187 114.939 1.05612 115.199 0.802137C115.458 0.54694 115.759 0.350212 116.103 0.209519C116.445 0.0700433 116.806 0 117.186 0C117.56 0 117.917 0.0700433 118.258 0.209519C118.599 0.350212 118.899 0.54694 119.157 0.802137C119.416 1.05612 119.622 1.36187 119.773 1.72C119.924 2.07752 120 2.47401 120 2.9101Z" fill="#272727"/>
<path d="M48.7915 33.5228C50.3982 31.8802 51.2132 29.8575 51.2132 27.515V8.91424C51.2132 6.57178 50.3928 4.54421 48.7751 2.89C47.1574 1.237 45.1755 0.398926 42.8836 0.398926H34.5547V45.3307H40.5996V6.57848H42.8836C43.5347 6.57848 44.0329 6.79044 44.4976 7.2649C44.9611 7.73997 45.1682 8.24914 45.1682 8.91424V27.515C45.1682 28.1807 44.9611 28.6899 44.4983 29.1644C44.2376 29.4299 43.9726 29.5968 43.6657 29.6876L41.4944 30.3362L42.5566 34.0698H42.5553L45.6932 45.3301H52.0719L48.7733 33.5405C48.7794 33.5356 48.7848 33.5301 48.7915 33.5228Z" fill="#272727"/>
<path d="M69.3653 0.400391H63.3203V45.3316H69.3653V0.400391Z" fill="#272727"/>
<path d="M7.75707 0.399414L0.657227 45.3312H6.79415L10.9279 19.1951L13.0285 32.533L13.816 37.4347L13.824 37.425L15.0622 45.3312H21.1973L14.0986 0.399414H7.75707Z" fill="#272727"/>
<path d="M79.05 0.399414L70.5986 22.8647L79.05 45.3312H85.7211L77.2685 22.8647L85.7217 0.399414H79.05Z" fill="#272727"/>
<path d="M105.364 14.7633V36.8607C105.364 37.5258 105.142 38.035 104.643 38.5095C104.143 38.9833 103.608 39.1959 102.906 39.1959C102.206 39.1959 101.672 38.9833 101.171 38.5095C100.673 38.035 100.449 37.5258 100.449 36.8607V31.0113V8.91387C100.449 8.24756 100.672 7.7396 101.171 7.26453C101.671 6.78946 102.206 6.57812 102.907 6.57812C103.607 6.57812 104.142 6.78946 104.643 7.26453C105.141 7.7396 105.364 8.24756 105.364 8.91387V14.7633ZM109.245 2.89085C107.505 1.23785 105.374 0.400391 102.908 0.400391C100.443 0.400391 98.3107 1.23785 96.5706 2.89085C94.8311 4.54445 93.9492 6.57142 93.9492 8.91448V14.7633V31.0119V36.8613C93.9492 39.205 94.8305 41.232 96.5706 42.885C98.3095 44.5374 100.441 45.3754 102.907 45.3754C105.372 45.3754 107.504 44.5374 109.245 42.8838C110.983 41.2308 111.865 39.2044 111.865 36.8613V31.0119V14.7633V8.91448C111.865 6.57081 110.983 4.54324 109.245 2.89085Z" fill="#272727"/>
<path d="M0.6115 50.6133H0V55.61H0.6115V50.6133Z" fill="#272727"/>
<path d="M6.29129 51.9904H6.27972V55.61H5.72852V50.6133H6.49654L7.11535 53.6044H7.12631V50.6133H7.67143V55.61H7.04165L6.29129 51.9904Z" fill="#272727"/>
<path d="M13.5374 51.9904H13.5264V55.61H12.9746V50.6133H13.7432L14.3614 53.6044H14.3724V50.6133H14.9175V55.61H14.2884L13.5374 51.9904Z" fill="#272727"/>
<path d="M21.0141 54.4618C21.0141 54.8181 21.1359 54.954 21.3308 54.954C21.5257 54.954 21.6487 54.8181 21.6487 54.4618V51.7612C21.6487 51.4049 21.5257 51.2685 21.3308 51.2685C21.1359 51.2685 21.0141 51.4049 21.0141 51.7612V54.4618ZM20.4014 51.8112C20.4014 51.0115 20.7297 50.5547 21.3308 50.5547C21.9326 50.5547 22.2602 51.0115 22.2602 51.8112V54.4107C22.2602 55.2104 21.9326 55.6672 21.3308 55.6672C20.7297 55.6672 20.4014 55.211 20.4014 54.4107V51.8112Z" fill="#272727"/>
<path d="M28.7371 54.6891H28.7487L29.2103 50.6133H29.7731L29.1714 55.6112H28.2584L27.6572 50.6133H28.2754L28.7371 54.6891Z" fill="#272727"/>
<path d="M35.7553 54.0259H36.3454L36.0567 51.4983H36.0452L35.7553 54.0259ZM37.1531 55.61H36.5349L36.4301 54.7037H35.6779L35.5725 55.61H35.0098L35.6334 50.6133H36.5294L37.1531 55.61Z" fill="#272727"/>
<path d="M42.2676 50.6123H44.1605V51.3261H43.5204V55.6097H42.9077V51.3261H42.2676V50.6123Z" fill="#272727"/>
<path d="M50.0519 50.6133H49.4404V55.61H50.0519V50.6133Z" fill="#272727"/>
<path d="M56.0746 54.4618C56.0746 54.8181 56.1964 54.954 56.3913 54.954C56.5862 54.954 56.7093 54.8181 56.7093 54.4618V51.7612C56.7093 51.4049 56.5862 51.2685 56.3913 51.2685C56.1964 51.2685 56.0746 51.4049 56.0746 51.7612V54.4618ZM55.4619 51.8112C55.4619 51.0115 55.7902 50.5547 56.3913 50.5547C56.9925 50.5547 57.3208 51.0115 57.3208 51.8112V54.4107C57.3208 55.2104 56.9925 55.6672 56.3913 55.6672C55.7902 55.6672 55.4619 55.211 55.4619 54.4107V51.8112Z" fill="#272727"/>
<path d="M63.2874 51.9904H63.2758V55.61H62.7246V50.6133H63.4932L64.1114 53.6044H64.1224V50.6133H64.6675V55.61H64.0384L63.2874 51.9904Z" fill="#272727"/>
<path d="M76.6033 51.3261V54.8946H76.9474C77.1423 54.8946 77.2599 54.7673 77.2599 54.4098V51.8109C77.2599 51.4546 77.143 51.3255 76.9474 51.3255H76.6033V51.3261ZM75.9912 50.6123H76.9596C77.5723 50.6123 77.8732 51.0478 77.8732 51.8475V54.3745C77.8732 55.1742 77.5723 55.6091 76.9596 55.6091H75.9912V50.6123Z" fill="#272727"/>
<path d="M83.8832 52.7188H84.7237V53.4326H83.8832V54.8962H84.9412V55.6106H83.2705V50.6133H84.9412V51.3259H83.8832V52.7188Z" fill="#272727"/>
<path d="M91.1574 50.5552C91.7536 50.5552 92.0582 51.012 92.0582 51.8117V51.9694H91.4795V51.7611C91.4795 51.4054 91.3687 51.2684 91.1738 51.2684C90.9789 51.2684 90.8681 51.4054 90.8681 51.7611C90.8681 52.1253 90.9899 52.397 91.3906 52.8471C91.9022 53.4251 92.0636 53.8392 92.0636 54.4093C92.0636 55.2096 91.7524 55.667 91.1513 55.667C90.5495 55.667 90.2383 55.2096 90.2383 54.4093V54.103H90.8163V54.4605C90.8163 54.8168 90.9393 54.9453 91.1342 54.9453C91.3285 54.9453 91.4509 54.8168 91.4509 54.4605C91.4509 54.0951 91.3291 53.8246 90.9283 53.3751C90.4167 52.7971 90.2553 52.3818 90.2553 51.8117C90.2553 51.012 90.5605 50.5552 91.1574 50.5552Z" fill="#272727"/>
<path d="M98.0353 50.6133H97.4238V55.61H98.0353V50.6133Z" fill="#272727"/>
<path d="M104.013 52.8254H104.87V54.4114C104.87 55.2099 104.558 55.6673 103.958 55.6673C103.357 55.6673 103.045 55.2099 103.045 54.4114V51.8107C103.045 51.011 103.357 50.5542 103.958 50.5542C104.558 50.5542 104.87 51.0116 104.87 51.8107V52.2967H104.292V51.7608C104.292 51.4038 104.17 51.268 103.974 51.268C103.779 51.268 103.657 51.4038 103.657 51.7608V54.4613C103.657 54.8176 103.779 54.9455 103.974 54.9455C104.169 54.9455 104.292 54.8176 104.292 54.4613V53.5392H104.013V52.8254Z" fill="#272727"/>
<path d="M110.886 51.9904H110.875V55.61H110.324V50.6133H111.092L111.71 53.6044H111.722V50.6133H112.267V55.61H111.638L110.886 51.9904Z" fill="#272727"/>
</svg>
