<svg width="47" height="47" viewBox="0 0 47 47" fill="none" xmlns="http://www.w3.org/2000/svg">
<path d="M36.9458 32.2782C37.0819 31.7494 36.9454 31.5628 36.717 31.4914C35.5143 30.7465 34.7125 29.9098 33.8628 28.6725C33.1786 27.2354 32.8127 26.7875 32.862 24.7621C32.816 23.7859 32.9365 22.8098 33.3481 21.8337C33.833 20.8321 34.2763 19.9892 35.1897 19.4052L36.0648 18.6243C36.2762 18.4642 36.276 18.1461 36.1679 17.9292C35.4051 17.1377 34.7886 16.3252 33.4169 15.621C32.8612 15.298 32.0224 15.048 30.9173 15.0008C30.1371 15.0012 29.3802 14.9782 28.4236 15.1556C27.6572 15.2809 26.8564 15.542 26.09 15.9365L24.986 16.465C24.2858 16.6371 23.6502 16.55 23.0413 16.3555L20.9994 15.4889C20.2888 15.2261 19.4569 15.0851 18.4714 15.0984C17.4984 15.0955 16.5342 15.1364 15.6516 15.5865C14.9518 15.9252 14.3153 16.3274 13.7069 16.7578C12.9858 17.4331 12.3015 18.1452 11.7622 19.0029C11.3468 19.5415 11.0526 20.4105 10.727 21.2194C10.4297 22.0291 10.2936 22.6284 10.1721 23.361C9.95923 24.7775 9.98464 25.6376 10.0346 26.7143C10.1396 28.5576 10.4023 29.2283 10.5954 30.326C10.8279 31.2584 11.1484 32.0139 11.4705 32.7663C11.7978 33.6758 12.3287 34.483 12.8318 35.3042C13.2744 36.1574 13.9662 37.0938 14.6792 38.0374C15.2954 38.7209 15.581 39.2384 16.7555 40.0813C17.5432 40.5753 17.6595 40.6714 18.0824 40.8682C18.4717 40.9654 18.8743 41.0494 19.4437 40.9658C19.8139 40.887 20.1611 40.8312 20.7077 40.5753C21.0967 40.4126 21.4856 40.25 21.8745 40.0873C22.3094 39.892 22.7356 39.6968 23.5275 39.5016C24.0461 39.4333 24.5647 39.3812 25.0833 39.404C25.4093 39.3986 25.9519 39.5237 26.7362 39.7944C27.2239 39.9581 27.4911 39.9743 28.4864 40.4777C28.9087 40.6154 29.178 40.8556 29.8477 40.8277C30.4912 40.7389 31.0991 40.5107 31.5636 40.2421C32.0766 39.8651 32.6813 39.5802 33.028 39.0362C33.4466 38.6443 33.6925 38.3391 33.9315 38.0374L35.0984 36.2804C35.4723 35.8333 35.8108 35.315 36.0933 34.6841C36.4341 33.939 36.6954 33.1141 36.9458 32.2782Z" stroke="#7B7B7B" stroke-width="3"/>
<path d="M24.0315 14.6488C24.0418 15.0536 24.2866 14.9327 24.4238 14.9854C24.9397 15.0462 25.1928 14.9019 25.543 14.8334C26.2204 14.6314 26.4816 14.4834 26.8083 14.327C27.1814 14.096 27.5545 13.9295 27.9276 13.5674C28.2795 13.3012 28.5028 13.0739 28.8035 12.7064C29.2015 12.2809 29.3347 12.0799 29.6308 11.6429C29.9601 11.1433 30.1174 10.8107 30.3608 10.2756C30.5239 9.84562 30.7207 9.43317 30.7987 8.95888C30.8849 8.53104 30.994 8.11517 30.9934 7.64217C31.0208 7.41112 30.9582 7.27363 30.8961 7.13574C30.6502 6.98478 30.5236 6.98974 30.2374 7.01094C29.9023 7.01243 29.4734 7.06606 28.9982 7.28767C28.4748 7.5379 27.9741 7.80389 27.5869 8.1486C27.1733 8.41869 26.8928 8.68879 26.6136 8.95888C26.2746 9.2813 25.9837 9.65376 25.689 10.0224C25.3537 10.4388 25.0921 10.8002 24.9389 11.1693C24.7322 11.5804 24.5886 11.9915 24.4238 12.4026C24.2488 12.8413 24.1147 13.3014 24.0315 13.7878C23.9835 14.0915 23.996 14.3025 24.0315 14.6488Z" stroke="#7B7B7B" stroke-width="3"/>
</svg>
