<svg width="246" height="57" viewBox="0 0 246 57" fill="none" xmlns="http://www.w3.org/2000/svg">
<path d="M240.672 3.84698H240.999C241.452 3.84698 241.753 3.82184 241.854 3.79669C241.955 3.77155 242.055 3.69612 242.131 3.62069C242.206 3.52012 242.231 3.41954 242.231 3.31897C242.231 3.2184 242.206 3.11782 242.131 3.01725C242.055 2.94182 241.98 2.86639 241.854 2.84125C241.728 2.8161 241.452 2.79096 240.999 2.79096H240.672V3.84698ZM239.868 6.10988V2.13723H240.672C241.427 2.13723 241.854 2.13723 241.929 2.13723C242.206 2.16238 242.407 2.21266 242.558 2.28809C242.709 2.36352 242.835 2.48924 242.935 2.66524C243.036 2.84125 243.086 3.01725 243.086 3.24354C243.086 3.52012 242.985 3.77155 242.809 3.9727C242.633 4.17384 242.357 4.29956 242.03 4.34985C242.156 4.40014 242.231 4.45042 242.307 4.50071C242.382 4.551 242.457 4.65157 242.583 4.80243C242.608 4.85272 242.709 5.00358 242.885 5.28015L243.363 6.08474H242.357L242.03 5.43101C241.804 5.00358 241.628 4.727 241.477 4.60128C241.326 4.50071 241.15 4.42528 240.924 4.42528H240.672V6.0596H239.868V6.10988ZM241.577 1.10635C241.075 1.10635 240.572 1.23207 240.094 1.48351C239.616 1.73494 239.264 2.11209 238.988 2.58981C238.711 3.06754 238.585 3.5704 238.585 4.09841C238.585 4.62643 238.711 5.12929 238.988 5.60702C239.264 6.08474 239.616 6.46189 240.094 6.71332C240.572 6.9899 241.075 7.11562 241.577 7.11562C242.105 7.11562 242.608 6.9899 243.061 6.71332C243.539 6.43675 243.916 6.08474 244.167 5.60702C244.444 5.12929 244.569 4.62643 244.569 4.09841C244.569 3.5704 244.444 3.06754 244.167 2.58981C243.891 2.11209 243.513 1.73494 243.061 1.48351C242.558 1.23207 242.08 1.10635 241.577 1.10635ZM241.552 0.377197C242.181 0.377197 242.809 0.528057 243.388 0.854921C243.966 1.18178 244.444 1.63437 244.771 2.23781C245.097 2.84125 245.273 3.46983 245.273 4.12356C245.273 4.77729 245.097 5.38073 244.771 5.98417C244.444 6.56246 243.991 7.04019 243.388 7.36705C242.809 7.69392 242.181 7.86992 241.527 7.86992C240.873 7.86992 240.27 7.69392 239.667 7.36705C239.088 7.04019 238.61 6.58761 238.284 5.98417C237.957 5.40587 237.781 4.77729 237.781 4.12356C237.781 3.46983 237.957 2.84125 238.284 2.23781C238.61 1.63437 239.088 1.18178 239.667 0.854921C240.295 0.528057 240.924 0.377197 241.552 0.377197Z" fill="white"/>
<path d="M0 26.8782V0.226257H6.98985V19.2346L18.5055 4.19891C18.5055 4.19891 21.221 0.477691 23.0062 0.477691H29.0154C29.0154 0.477691 10.8871 25.2942 10.5602 25.7719C10.2333 26.2496 9.47905 26.8531 8.29731 26.8531H0V26.8782Z" fill="white"/>
<path d="M41.034 0.528076H33.5664V26.828H41.034V0.528076Z" fill="white"/>
<path d="M45.4089 0.276489H64.9202V3.24341H58.8858V26.9033H51.5188V3.34398H45.4592L45.4089 0.276489Z" fill="white"/>
<path d="M77.1649 2.86639H86.5182C92.8543 2.86639 92.8543 12.4963 86.5182 12.4963H77.1649V2.86639ZM69.9739 0.377197V26.9286H77.1649V14.3318H83.1239C83.1239 14.3318 83.9787 14.3318 85.3868 16.4438C86.7948 18.5558 96.9527 32.2841 96.9527 32.2841C96.9527 32.2841 98.8887 35.2008 101.755 35.2008H235.266V32.2338H109.223C109.223 32.2338 106.532 32.5607 104.521 30.3984C102.459 28.1858 92.1503 14.5078 92.1503 14.5078C100.096 14.03 100.85 1.58408 92.5778 0.502914C91.1697 0.377197 69.9739 0.377197 69.9739 0.377197Z" fill="white"/>
<path d="M126.321 15.79C126.321 20.3158 123.781 24.0622 120.638 24.0622H115.76C112.617 24.0622 110.028 20.341 110.028 15.79V11.7168C110.028 7.16586 112.617 3.44464 115.76 3.44464H120.638C123.756 3.44464 126.321 7.16586 126.321 11.7168V15.79ZM122.901 0H113.598C107.589 0 102.661 4.97839 102.661 10.9876V16.3432C102.661 22.4027 107.589 27.3308 113.598 27.3308H122.901C128.961 27.3308 133.889 22.4027 133.889 16.3432V10.9876C133.889 4.97839 128.961 0 122.901 0Z" fill="white"/>
<path d="M187.418 12.0689H201.599V14.5078H187.418V18.2793C187.418 21.5982 190.058 24.2885 193.377 24.2885H201.775V26.8783H187.997C183.949 26.8783 180.605 23.5845 180.605 19.4862V0.427484H183.798H187.418H201.599V2.86639H187.418V12.0689ZM138.137 0.377197H144.046C146.636 0.578344 146.485 1.18178 148.044 3.44469L156.97 16.3181L165.845 3.44469C167.429 1.18178 167.253 0.578344 169.843 0.377197H175.752V26.8783H169.843V8.87565L156.97 26.2749L144.046 8.87565V26.8783H138.137V0.377197Z" fill="white"/>
<path d="M228.83 26.8782L221.161 17.3238L213.392 26.8782H206.955L217.842 13.4768L207.332 0.427429H213.769L221.111 9.60476L228.478 0.427429H234.889L224.379 13.4768L235.267 26.8782H228.83Z" fill="white"/>
<path d="M75.1283 55.24H73.6197L71.3065 44.202V55.2651H69.9739V41.386H72.1362L74.4242 52.4742L76.6369 41.386H78.7992V55.2651H77.3409V44.1015L75.1283 55.24Z" fill="white"/>
<path d="M83.9285 41.386H82.3696V55.2651H83.9285V41.386Z" fill="white"/>
<path d="M97.5062 47.5461V48.929H94.0867V53.8571H98.2605V55.2651H92.5278V41.386H98.2605V42.794H94.0867V47.5461H97.5062Z" fill="white"/>
<path d="M107.714 44.73V45.1071H106.231V44.6294C106.231 43.3722 105.753 42.6431 104.647 42.6431C103.54 42.6431 103.063 43.3722 103.063 44.6043C103.063 47.722 107.739 48.0238 107.739 51.921C107.739 54.033 106.733 55.3908 104.596 55.3908C102.459 55.3908 101.479 54.033 101.479 51.921V51.1164H102.937V51.9964C102.937 53.2536 103.465 53.9827 104.571 53.9827C105.677 53.9827 106.205 53.2536 106.205 51.9964C106.205 48.9038 101.554 48.6021 101.554 44.7048C101.554 42.5676 102.56 41.235 104.647 41.235C106.708 41.2602 107.714 42.6179 107.714 44.73Z" fill="white"/>
<path d="M113.975 48.401C115.131 48.401 115.684 47.873 115.684 46.5404V44.7049C115.684 43.4477 115.232 42.794 114.1 42.794H112.617V48.401H113.975ZM114.1 41.386C116.288 41.386 117.218 42.6683 117.218 44.7803V46.4398C117.218 48.6524 116.187 49.7839 113.975 49.7839H112.592V55.2651H111.033V41.386H114.1Z" fill="white"/>
<path d="M121.92 51.1416H125.013L123.429 43.1209L121.92 51.1416ZM121.719 52.4742L121.191 55.2651H119.758L122.423 41.386H124.686L127.351 55.2651H125.792L125.264 52.4742H121.719Z" fill="white"/>
<path d="M136.654 44.73V45.9871H135.171V44.6545C135.171 43.3974 134.668 42.6431 133.536 42.6431C132.43 42.6431 131.902 43.3974 131.902 44.6545V51.9964C131.902 53.2536 132.43 54.0079 133.536 54.0079C134.668 54.0079 135.171 53.2536 135.171 51.9964V50.1861H136.654V51.921C136.654 54.033 135.649 55.4159 133.511 55.4159C131.374 55.4159 130.394 54.033 130.394 51.921V44.7551C130.394 42.6431 131.399 41.2602 133.511 41.2602C135.649 41.2602 136.654 42.6431 136.654 44.73Z" fill="white"/>
<path d="M141.582 41.386H140.023V55.2651H141.582V41.386Z" fill="white"/>
<path d="M146.561 51.9964C146.561 53.2536 147.089 54.0079 148.22 54.0079C149.352 54.0079 149.88 53.2787 149.88 51.9964V44.6545C149.88 43.3974 149.352 42.6431 148.22 42.6431C147.114 42.6431 146.561 43.3974 146.561 44.6545V51.9964ZM145.027 44.73C145.027 42.6179 146.083 41.235 148.22 41.235C150.383 41.235 151.414 42.5928 151.414 44.73V51.921C151.414 54.033 150.357 55.4159 148.22 55.4159C146.083 55.4159 145.027 54.033 145.027 51.921V44.73Z" fill="white"/>
<path d="M154.757 53.3542V55.2651H155.336L154.833 57H155.486L156.266 55.1142V53.3542H154.757Z" fill="white"/>
<path d="M170.019 55.24H168.511L166.223 44.202V55.2651H164.865V41.386H167.027L169.315 52.4742L171.528 41.386H173.69V55.2651H172.232V44.1015L170.019 55.24Z" fill="white"/>
<path d="M178.82 41.386H177.261V55.2651H178.82V41.386Z" fill="white"/>
<path d="M192.573 55.24H191.064L188.776 44.202V55.2651H187.419V41.386H189.581L191.869 52.4742L194.082 41.386H196.244V55.2651H194.786V44.1015L192.573 55.24Z" fill="white"/>
<path d="M201.298 51.9965C201.298 53.2537 201.801 54.008 202.932 54.008C204.038 54.008 204.541 53.2537 204.541 51.9965V41.386H205.999V51.9211C205.999 54.0331 205.019 55.4411 202.882 55.4411C200.745 55.4411 199.789 54.0331 199.789 51.9211V41.386H201.323V51.9965H201.298Z" fill="white"/>
<path d="M210.852 55.2651H209.469V41.386H211.43L214.674 51.4182V41.386H216.032V55.2651H214.422L210.852 44.0512V55.2651Z" fill="white"/>
<path d="M222.846 53.8571C223.952 53.8571 224.505 53.1531 224.505 51.8959V44.7552C224.505 43.498 223.977 42.794 222.846 42.794H221.186V53.8571H222.846ZM222.871 41.386C225.033 41.386 226.039 42.6934 226.039 44.8306V51.8205C226.039 53.9325 225.033 55.24 222.871 55.24H219.602V41.3608H222.871V41.386Z" fill="white"/>
<path d="M230.866 51.9964C230.866 53.2536 231.394 54.0079 232.526 54.0079C233.657 54.0079 234.185 53.2787 234.185 51.9964V44.6545C234.185 43.3974 233.657 42.6431 232.526 42.6431C231.419 42.6431 230.866 43.3974 230.866 44.6545V51.9964ZM229.333 44.73C229.333 42.6179 230.389 41.235 232.526 41.235C234.688 41.235 235.719 42.5928 235.719 44.73V51.921C235.719 54.033 234.663 55.4159 232.526 55.4159C230.389 55.4159 229.333 54.033 229.333 51.921V44.73Z" fill="white"/>
</svg>
