<svg width="23" height="23" viewBox="0 0 23 23" fill="none" xmlns="http://www.w3.org/2000/svg">
<path d="M19.7609 9.43478H18.877C18.4833 9.43478 18.1408 9.17451 17.9901 8.81073V8.81073C17.8396 8.44739 17.8986 8.02325 18.1767 7.74516L18.8014 7.1205C19.0352 6.88672 19.164 6.57528 19.164 6.24361C19.164 5.91235 19.0352 5.60091 18.8014 5.36713L17.6325 4.19822C17.1653 3.73107 16.3475 3.72983 15.8795 4.19822L15.2552 4.82256C14.9769 5.10082 14.5526 5.1599 14.189 5.00945V5.00945C13.8254 4.85898 13.5652 4.51656 13.5652 4.12301V3.23913C13.5652 2.55596 13.0093 2 12.3261 2H10.6739C9.99074 2 9.43478 2.55596 9.43478 3.23913V4.12321C9.43478 4.51688 9.1747 4.85938 8.81096 5.00994V5.00994C8.44744 5.16041 8.02316 5.10136 7.74491 4.82322L7.12009 4.19863C6.63683 3.71537 5.85039 3.71537 5.36713 4.19863L4.1978 5.36754C3.71496 5.8508 3.71496 6.63724 4.1978 7.1205L4.82228 7.74521C5.10047 8.02351 5.15951 8.44776 5.00906 8.81136V8.81136C4.85857 9.17504 4.51612 9.4352 4.12253 9.4352H3.23913C2.55596 9.4352 2 9.99115 2 10.6743V12.3265C2 13.0093 2.55596 13.5652 3.23913 13.5652H4.12321C4.51688 13.5652 4.85938 13.8253 5.00994 14.189V14.189C5.16041 14.5526 5.10136 14.9768 4.82322 15.2551L4.19863 15.8799C3.71537 16.3632 3.71537 17.1496 4.19863 17.6329L5.36754 18.8022C5.8508 19.285 6.63724 19.285 7.1205 18.8022L7.74521 18.1777C8.02351 17.8995 8.44776 17.8405 8.81136 17.9909V17.9909C9.17504 18.1414 9.4352 18.4839 9.4352 18.8775V19.7609C9.4352 20.444 9.99115 21 10.6743 21H12.3265C13.0097 21 13.5656 20.444 13.5656 19.7609V18.8765C13.5656 18.483 13.8257 18.1406 14.1893 17.9902V17.9902C14.553 17.8397 14.9773 17.8988 15.2555 18.1772L15.8799 18.8018C16.3483 19.2698 17.1661 19.2689 17.6329 18.8018L18.8018 17.6329C19.0356 17.3991 19.1644 17.0877 19.1644 16.7564C19.1644 16.4247 19.0356 16.1137 18.8018 15.8799L18.1773 15.2552C17.8991 14.9769 17.8401 14.5526 17.9905 14.1891V14.1891C18.141 13.8254 18.4835 13.5652 18.8771 13.5652H19.7609C20.444 13.5652 21 13.0093 21 12.3261V10.6739C21 9.99074 20.444 9.43478 19.7609 9.43478Z" stroke="white" stroke-width="1.5"/>
<circle cx="11.5" cy="11.5" r="2.5" stroke="white" stroke-width="1.5"/>
</svg>
