<svg width="23" height="23" viewBox="0 0 23 23" fill="none" xmlns="http://www.w3.org/2000/svg">
<mask id="path-1-inside-1" fill="white">
<rect x="2.15625" y="2.15625" width="18.6875" height="18.6875" rx="1"/>
</mask>
<rect x="2.15625" y="2.15625" width="18.6875" height="18.6875" rx="1" stroke="#1D1D1D" stroke-width="3" mask="url(#path-1-inside-1)"/>
<mask id="path-2-inside-2" fill="white">
<rect x="8.625" y="11.5" width="5.75" height="9.34375" rx="1"/>
</mask>
<rect x="8.625" y="11.5" width="5.75" height="9.34375" rx="1" stroke="#1D1D1D" stroke-width="3" mask="url(#path-2-inside-2)"/>
<path d="M15.8438 3.15625C15.8438 3.01818 15.9557 2.90625 16.0938 2.90625H19.8438C19.9818 2.90625 20.0938 3.01818 20.0938 3.15625V7.1875C20.0938 8.3611 19.1424 9.3125 17.9688 9.3125C16.7951 9.3125 15.8438 8.3611 15.8438 7.1875V3.15625Z" stroke="#1D1D1D" stroke-width="1.5"/>
<path d="M11.5312 3.15625C11.5312 3.01818 11.6432 2.90625 11.7812 2.90625H15.5312C15.6693 2.90625 15.7812 3.01818 15.7812 3.15625V7.1875C15.7812 8.3611 14.8299 9.3125 13.6562 9.3125C12.4826 9.3125 11.5312 8.3611 11.5312 7.1875V3.15625Z" stroke="#1D1D1D" stroke-width="1.5"/>
<path d="M7.21875 3.15625C7.21875 3.01818 7.33068 2.90625 7.46875 2.90625H11.2188C11.3568 2.90625 11.4688 3.01818 11.4688 3.15625V7.1875C11.4688 8.3611 10.5174 9.3125 9.34375 9.3125C8.17014 9.3125 7.21875 8.3611 7.21875 7.1875V3.15625Z" stroke="#1D1D1D" stroke-width="1.5"/>
<path d="M2.90625 3.15625C2.90625 3.01818 3.01818 2.90625 3.15625 2.90625H6.90625C7.04432 2.90625 7.15625 3.01818 7.15625 3.15625V7.1875C7.15625 8.3611 6.20485 9.3125 5.03125 9.3125C3.85764 9.3125 2.90625 8.3611 2.90625 7.1875V3.15625Z" stroke="#1D1D1D" stroke-width="1.5"/>
</svg>
