<svg width="47" height="47" viewBox="0 0 47 47" fill="none" xmlns="http://www.w3.org/2000/svg">
<path d="M6 32C6 27.5817 9.58172 24 14 24V24C18.4183 24 22 27.5817 22 32V33.5238C22 33.7868 21.7868 34 21.5238 34H6.47619C6.2132 34 6 33.7868 6 33.5238V32Z" stroke="#D89557" stroke-width="3"/>
<path d="M26 32C26 27.5817 29.5817 24 34 24V24C38.4183 24 42 27.5817 42 32V33.5238C42 33.7868 41.7868 34 41.5238 34H26.4762C26.2132 34 26 33.7868 26 33.5238V32Z" stroke="#D89557" stroke-width="3"/>
<circle cx="14" cy="19" r="5" stroke="#D89557" stroke-width="3"/>
<circle cx="34" cy="19" r="5" stroke="#D89557" stroke-width="3"/>
<path d="M14 33C14 27.4772 18.4772 23 24 23C29.5228 23 34 27.4772 34 33V35.381C34 35.7228 33.7228 36 33.381 36H14.619C14.2772 36 14 35.7228 14 35.381V33Z" fill="white" stroke="#D89557" stroke-width="3"/>
<circle cx="24" cy="17" r="6" fill="white" stroke="#D89557" stroke-width="3"/>
</svg>
